<?xml version="1.0" encoding="UTF-8"?>
<svg xmlns="http://www.w3.org/2000/svg" xmlns:xlink="http://www.w3.org/1999/xlink" version="1.1" width="300px" height="300px" viewBox="0 0 300 300"><defs><rect id="r0" width="10" height="10" fill="#000000"/></defs><rect x="0" y="0" width="300" height="300" fill="#fefefe"/><use x="45" y="45" xlink:href="#r0"/><use x="55" y="45" xlink:href="#r0"/><use x="65" y="45" xlink:href="#r0"/><use x="75" y="45" xlink:href="#r0"/><use x="85" y="45" xlink:href="#r0"/><use x="95" y="45" xlink:href="#r0"/><use x="105" y="45" xlink:href="#r0"/><use x="125" y="45" xlink:href="#r0"/><use x="135" y="45" xlink:href="#r0"/><use x="165" y="45" xlink:href="#r0"/><use x="185" y="45" xlink:href="#r0"/><use x="195" y="45" xlink:href="#r0"/><use x="205" y="45" xlink:href="#r0"/><use x="215" y="45" xlink:href="#r0"/><use x="225" y="45" xlink:href="#r0"/><use x="235" y="45" xlink:href="#r0"/><use x="245" y="45" xlink:href="#r0"/><use x="45" y="55" xlink:href="#r0"/><use x="105" y="55" xlink:href="#r0"/><use x="135" y="55" xlink:href="#r0"/><use x="165" y="55" xlink:href="#r0"/><use x="185" y="55" xlink:href="#r0"/><use x="245" y="55" xlink:href="#r0"/><use x="45" y="65" xlink:href="#r0"/><use x="65" y="65" xlink:href="#r0"/><use x="75" y="65" xlink:href="#r0"/><use x="85" y="65" xlink:href="#r0"/><use x="105" y="65" xlink:href="#r0"/><use x="125" y="65" xlink:href="#r0"/><use x="145" y="65" xlink:href="#r0"/><use x="165" y="65" xlink:href="#r0"/><use x="185" y="65" xlink:href="#r0"/><use x="205" y="65" xlink:href="#r0"/><use x="215" y="65" xlink:href="#r0"/><use x="225" y="65" xlink:href="#r0"/><use x="245" y="65" xlink:href="#r0"/><use x="45" y="75" xlink:href="#r0"/><use x="65" y="75" xlink:href="#r0"/><use x="75" y="75" xlink:href="#r0"/><use x="85" y="75" xlink:href="#r0"/><use x="105" y="75" xlink:href="#r0"/><use x="125" y="75" xlink:href="#r0"/><use x="155" y="75" xlink:href="#r0"/><use x="185" y="75" xlink:href="#r0"/><use x="205" y="75" xlink:href="#r0"/><use x="215" y="75" xlink:href="#r0"/><use x="225" y="75" xlink:href="#r0"/><use x="245" y="75" xlink:href="#r0"/><use x="45" y="85" xlink:href="#r0"/><use x="65" y="85" xlink:href="#r0"/><use x="75" y="85" xlink:href="#r0"/><use x="85" y="85" xlink:href="#r0"/><use x="105" y="85" xlink:href="#r0"/><use x="125" y="85" xlink:href="#r0"/><use x="135" y="85" xlink:href="#r0"/><use x="145" y="85" xlink:href="#r0"/><use x="185" y="85" xlink:href="#r0"/><use x="205" y="85" xlink:href="#r0"/><use x="215" y="85" xlink:href="#r0"/><use x="225" y="85" xlink:href="#r0"/><use x="245" y="85" xlink:href="#r0"/><use x="45" y="95" xlink:href="#r0"/><use x="105" y="95" xlink:href="#r0"/><use x="185" y="95" xlink:href="#r0"/><use x="245" y="95" xlink:href="#r0"/><use x="45" y="105" xlink:href="#r0"/><use x="55" y="105" xlink:href="#r0"/><use x="65" y="105" xlink:href="#r0"/><use x="75" y="105" xlink:href="#r0"/><use x="85" y="105" xlink:href="#r0"/><use x="95" y="105" xlink:href="#r0"/><use x="105" y="105" xlink:href="#r0"/><use x="125" y="105" xlink:href="#r0"/><use x="145" y="105" xlink:href="#r0"/><use x="165" y="105" xlink:href="#r0"/><use x="185" y="105" xlink:href="#r0"/><use x="195" y="105" xlink:href="#r0"/><use x="205" y="105" xlink:href="#r0"/><use x="215" y="105" xlink:href="#r0"/><use x="225" y="105" xlink:href="#r0"/><use x="235" y="105" xlink:href="#r0"/><use x="245" y="105" xlink:href="#r0"/><use x="135" y="115" xlink:href="#r0"/><use x="145" y="115" xlink:href="#r0"/><use x="45" y="125" xlink:href="#r0"/><use x="55" y="125" xlink:href="#r0"/><use x="65" y="125" xlink:href="#r0"/><use x="75" y="125" xlink:href="#r0"/><use x="105" y="125" xlink:href="#r0"/><use x="125" y="125" xlink:href="#r0"/><use x="145" y="125" xlink:href="#r0"/><use x="175" y="125" xlink:href="#r0"/><use x="205" y="125" xlink:href="#r0"/><use x="215" y="125" xlink:href="#r0"/><use x="225" y="125" xlink:href="#r0"/><use x="245" y="125" xlink:href="#r0"/><use x="65" y="135" xlink:href="#r0"/><use x="75" y="135" xlink:href="#r0"/><use x="85" y="135" xlink:href="#r0"/><use x="95" y="135" xlink:href="#r0"/><use x="125" y="135" xlink:href="#r0"/><use x="145" y="135" xlink:href="#r0"/><use x="165" y="135" xlink:href="#r0"/><use x="175" y="135" xlink:href="#r0"/><use x="185" y="135" xlink:href="#r0"/><use x="45" y="145" xlink:href="#r0"/><use x="55" y="145" xlink:href="#r0"/><use x="85" y="145" xlink:href="#r0"/><use x="95" y="145" xlink:href="#r0"/><use x="105" y="145" xlink:href="#r0"/><use x="115" y="145" xlink:href="#r0"/><use x="125" y="145" xlink:href="#r0"/><use x="165" y="145" xlink:href="#r0"/><use x="185" y="145" xlink:href="#r0"/><use x="195" y="145" xlink:href="#r0"/><use x="215" y="145" xlink:href="#r0"/><use x="225" y="145" xlink:href="#r0"/><use x="45" y="155" xlink:href="#r0"/><use x="65" y="155" xlink:href="#r0"/><use x="115" y="155" xlink:href="#r0"/><use x="125" y="155" xlink:href="#r0"/><use x="135" y="155" xlink:href="#r0"/><use x="145" y="155" xlink:href="#r0"/><use x="165" y="155" xlink:href="#r0"/><use x="175" y="155" xlink:href="#r0"/><use x="215" y="155" xlink:href="#r0"/><use x="225" y="155" xlink:href="#r0"/><use x="245" y="155" xlink:href="#r0"/><use x="45" y="165" xlink:href="#r0"/><use x="55" y="165" xlink:href="#r0"/><use x="85" y="165" xlink:href="#r0"/><use x="105" y="165" xlink:href="#r0"/><use x="115" y="165" xlink:href="#r0"/><use x="145" y="165" xlink:href="#r0"/><use x="155" y="165" xlink:href="#r0"/><use x="205" y="165" xlink:href="#r0"/><use x="225" y="165" xlink:href="#r0"/><use x="245" y="165" xlink:href="#r0"/><use x="125" y="175" xlink:href="#r0"/><use x="135" y="175" xlink:href="#r0"/><use x="145" y="175" xlink:href="#r0"/><use x="195" y="175" xlink:href="#r0"/><use x="205" y="175" xlink:href="#r0"/><use x="225" y="175" xlink:href="#r0"/><use x="45" y="185" xlink:href="#r0"/><use x="55" y="185" xlink:href="#r0"/><use x="65" y="185" xlink:href="#r0"/><use x="75" y="185" xlink:href="#r0"/><use x="85" y="185" xlink:href="#r0"/><use x="95" y="185" xlink:href="#r0"/><use x="105" y="185" xlink:href="#r0"/><use x="145" y="185" xlink:href="#r0"/><use x="175" y="185" xlink:href="#r0"/><use x="185" y="185" xlink:href="#r0"/><use x="195" y="185" xlink:href="#r0"/><use x="225" y="185" xlink:href="#r0"/><use x="235" y="185" xlink:href="#r0"/><use x="45" y="195" xlink:href="#r0"/><use x="105" y="195" xlink:href="#r0"/><use x="155" y="195" xlink:href="#r0"/><use x="165" y="195" xlink:href="#r0"/><use x="175" y="195" xlink:href="#r0"/><use x="195" y="195" xlink:href="#r0"/><use x="215" y="195" xlink:href="#r0"/><use x="235" y="195" xlink:href="#r0"/><use x="245" y="195" xlink:href="#r0"/><use x="45" y="205" xlink:href="#r0"/><use x="65" y="205" xlink:href="#r0"/><use x="75" y="205" xlink:href="#r0"/><use x="85" y="205" xlink:href="#r0"/><use x="105" y="205" xlink:href="#r0"/><use x="135" y="205" xlink:href="#r0"/><use x="155" y="205" xlink:href="#r0"/><use x="185" y="205" xlink:href="#r0"/><use x="195" y="205" xlink:href="#r0"/><use x="235" y="205" xlink:href="#r0"/><use x="245" y="205" xlink:href="#r0"/><use x="45" y="215" xlink:href="#r0"/><use x="65" y="215" xlink:href="#r0"/><use x="75" y="215" xlink:href="#r0"/><use x="85" y="215" xlink:href="#r0"/><use x="105" y="215" xlink:href="#r0"/><use x="125" y="215" xlink:href="#r0"/><use x="145" y="215" xlink:href="#r0"/><use x="235" y="215" xlink:href="#r0"/><use x="45" y="225" xlink:href="#r0"/><use x="65" y="225" xlink:href="#r0"/><use x="75" y="225" xlink:href="#r0"/><use x="85" y="225" xlink:href="#r0"/><use x="105" y="225" xlink:href="#r0"/><use x="125" y="225" xlink:href="#r0"/><use x="155" y="225" xlink:href="#r0"/><use x="195" y="225" xlink:href="#r0"/><use x="205" y="225" xlink:href="#r0"/><use x="225" y="225" xlink:href="#r0"/><use x="45" y="235" xlink:href="#r0"/><use x="105" y="235" xlink:href="#r0"/><use x="125" y="235" xlink:href="#r0"/><use x="155" y="235" xlink:href="#r0"/><use x="165" y="235" xlink:href="#r0"/><use x="185" y="235" xlink:href="#r0"/><use x="195" y="235" xlink:href="#r0"/><use x="205" y="235" xlink:href="#r0"/><use x="45" y="245" xlink:href="#r0"/><use x="55" y="245" xlink:href="#r0"/><use x="65" y="245" xlink:href="#r0"/><use x="75" y="245" xlink:href="#r0"/><use x="85" y="245" xlink:href="#r0"/><use x="95" y="245" xlink:href="#r0"/><use x="105" y="245" xlink:href="#r0"/><use x="125" y="245" xlink:href="#r0"/><use x="135" y="245" xlink:href="#r0"/><use x="145" y="245" xlink:href="#r0"/><use x="155" y="245" xlink:href="#r0"/><use x="165" y="245" xlink:href="#r0"/><use x="175" y="245" xlink:href="#r0"/><use x="195" y="245" xlink:href="#r0"/><use x="205" y="245" xlink:href="#r0"/><use x="215" y="245" xlink:href="#r0"/><use x="235" y="245" xlink:href="#r0"/></svg>
